<svg id="icons" xmlns="http://www.w3.org/2000/svg" viewBox="0 0 340 340"><path d="M104.237,262.74a77.5,77.5,0,0,0-8.407-27.567A176.351,176.351,0,0,0,75.5,205.229l-10.173-.871h0l-10.173.871a176.351,176.351,0,0,0-20.331,29.944,77.5,77.5,0,0,0-8.407,27.567C24.763,277.646,22.1,305.448,22.1,330h86.444C108.548,305.448,105.889,277.646,104.237,262.74Z" style="fill:#ffe1eb"/><path d="M75.041,303.426a2.242,2.242,0,0,0,.4-1.448l-4.541-64.5a5.588,5.588,0,0,0-5.576-5.228h0a5.588,5.588,0,0,0-5.576,5.228l-4.541,64.5a2.242,2.242,0,0,0,.4,1.448L64.6,316.208a.893.893,0,0,0,1.462,0Z" style="fill:#e271a0"/><path d="M95.83,235.173A176.351,176.351,0,0,0,75.5,205.229l-10.173-.871h0l-10.173.871s-2.125,2.44-5.242,6.538c0,0,11.664,21.753,46.689,24.96C96.343,236.209,96.1,235.685,95.83,235.173Z" style="fill:#f2b8d0"/><path d="M65.326,185.281H55.153v19.948a10.359,10.359,0,0,0,3.887,8.089l.5.4a9.257,9.257,0,0,0,11.566,0l.5-.4a10.359,10.359,0,0,0,3.887-8.089V185.281Z" style="fill:#ffd6bb"/><path d="M55.153,185.281v13.665a44.515,44.515,0,0,0,19.756,9.728,10.374,10.374,0,0,0,.59-3.445V185.281H55.153Z" style="fill:#f4a28c"/><path d="M65.326,147.862H35.893a86.538,86.538,0,0,0-7.035-13.49,31.369,31.369,0,0,1-5.048-19.691c.654-8.34,2.933-19.107,9.536-28.168a1.907,1.907,0,0,1,3.013-.087L47.571,100.1s4.888-8,12.344-10.753a1.906,1.906,0,0,1,2.466,1.105c1.143,3.133,4.517,9.986,13.283,14.882a36.43,36.43,0,0,0,6.455,2.738c3.182,1.043,10.456,3.907,15.747,9.649a20.341,20.341,0,0,1,3.826,21.62,16.771,16.771,0,0,1-6.933,8.1Z" style="fill:#6f6f7f"/><path d="M58.43,127.827h0a12.277,12.277,0,0,1-14.15.4l-1.011-.671a4.749,4.749,0,0,0-7.376,3.957v34.306a29.434,29.434,0,0,0,29.433,29.433h0a29.434,29.434,0,0,0,29.433-29.433V147.436A16.9,16.9,0,0,0,85.175,132.2l-12.083-5.806A14.2,14.2,0,0,0,58.43,127.827Z" style="fill:#ffd6bb"/><path d="M49.911,166.807a14.013,14.013,0,0,0,6.428,12.357,16.329,16.329,0,0,0,17.974,0,14.013,14.013,0,0,0,6.428-12.357Z" style="fill:#ff7676"/><path d="M31.283,233.31A81.135,81.135,0,0,0,22.439,262.3C20.824,276.875,18.115,305,18.1,329.841a4.106,4.106,0,0,0,3.61,4.14A4,4,0,0,0,26.1,330c0-24.491,2.685-52.377,4.286-66.819a73.172,73.172,0,0,1,7.972-26.144,170.525,170.525,0,0,1,15.353-23.649,14.383,14.383,0,0,0,2.827,3.054l.5.4a13.183,13.183,0,0,0,16.562,0l.506-.4a14.371,14.371,0,0,0,2.825-3.053A170.525,170.525,0,0,1,92.29,237.037a73.17,73.17,0,0,1,7.971,26.144c1.6,14.408,4.275,42.2,4.287,66.646a4.114,4.114,0,0,0,3.6,4.154,4,4,0,0,0,4.4-3.981c0-24.876-2.716-53.094-4.335-67.7a81.154,81.154,0,0,0-8.844-28.99A180.207,180.207,0,0,0,79.5,203.762v-7.67a33.47,33.47,0,0,0,19.26-30.27V149.541a20.9,20.9,0,0,0,6.615-8.642,24.3,24.3,0,0,0-4.578-25.9c-5.769-6.254-13.4-9.406-17.431-10.728a32.022,32.022,0,0,1-5.75-2.429c-9.831-5.491-11.762-13.582-11.833-13.891a4,4,0,0,0-4.791-3.086c-5.936,1.332-10.623,5.5-13.53,8.793L37.938,82.042a4,4,0,0,0-3.093-1.463h0a4.056,4.056,0,0,0-3.127,1.5c-8.556,10.419-11.191,23.3-11.895,32.283a35.529,35.529,0,0,0,5.7,22.209,69.037,69.037,0,0,1,3.566,6.146,25.352,25.352,0,0,1,2.808,11.673v11.428a33.47,33.47,0,0,0,19.26,30.27v7.67A180.207,180.207,0,0,0,31.283,233.31ZM27.8,114.991c.525-6.7,2.245-15.837,7.252-23.854l9.427,11.494a4,4,0,0,0,6.506-.45c.041-.067,3.5-5.551,8.517-8.269a33.211,33.211,0,0,0,14.213,14.909,40.375,40.375,0,0,0,7.159,3.048c2.653.869,9.332,3.442,14.042,8.549a16.284,16.284,0,0,1,3.095,17.356,15.256,15.256,0,0,1-.857,1.7,20.985,20.985,0,0,0-10.246-10.881l-12.083-5.8a18.138,18.138,0,0,0-18.792,1.838,8.293,8.293,0,0,1-9.541.27l-1.009-.67a8.75,8.75,0,0,0-13.589,7.29v.146A27.487,27.487,0,0,1,27.8,114.991Zm12.094,50.831V131.516a.7.7,0,0,1,.395-.661.754.754,0,0,1,.359-.1.733.733,0,0,1,.41.134l1.01.67a16.31,16.31,0,0,0,18.761-.533h0A10.166,10.166,0,0,1,71.359,130L83.442,135.8a12.972,12.972,0,0,1,7.317,11.632v18.386a25.433,25.433,0,0,1-50.866,0Zm25.433,33.432a33.4,33.4,0,0,0,6.173-.581v6.556a6.326,6.326,0,0,1-2.384,4.964l-.5.4a5.23,5.23,0,0,1-6.569,0l-.5-.4a6.332,6.332,0,0,1-2.386-4.966v-6.556A33.4,33.4,0,0,0,65.326,199.254Z" style="fill:#494456"/><path d="M65.326,321.248a4,4,0,0,0,3.272-1.7l10.174-14.475a4,4,0,0,0,.718-2.58l-4.6-65.269A9.587,9.587,0,0,0,55.76,237.2l-4.6,65.293a4,4,0,0,0,.718,2.58l10.173,14.475A4,4,0,0,0,65.326,321.248Zm-1.584-83.51a1.587,1.587,0,0,1,3.169.024l4.5,63.874-6.083,8.656-6.084-8.656Z" style="fill:#494456"/><path d="M76.526,182.5a18,18,0,0,0,8.215-15.689,4,4,0,0,0-4-4H49.911a4,4,0,0,0-4,4A18,18,0,0,0,54.126,182.5a20.464,20.464,0,0,0,22.4,0Zm-17.973-6.664a9.8,9.8,0,0,1-4.02-5.025H76.119a9.8,9.8,0,0,1-4.019,5.025A12.374,12.374,0,0,1,58.553,175.832Z" style="fill:#494456"/><path d="M244.4,173.474H190.089v36.218H215.5a18.27,18.27,0,0,0,12.193-4.663h0a18.276,18.276,0,0,1,12.193-4.662H244.4Z" style="fill:#ffd6bb"/><path d="M237.933,188.427c-.359,2.731-1.44,4.774-4.195,4.774,0,0-3.631-.468-8.579,3.725-2.008,1.7-4.24,5.183-9.28,5.183h-25.79v7.583H215.5a18.27,18.27,0,0,0,12.193-4.663h0a18.276,18.276,0,0,1,12.193-4.662H244.4V173.474h-6.671Z" style="fill:#f4a28c"/><path d="M202.413,209.692c11.04-2.16,11.8-5.448,11.8-5.448V193.509c0-3.1,3.136-6.79,5.385-9.04a5.494,5.494,0,0,0,1.285-5.926c-.142-.348-.287-.578-.424-.6a12.06,12.06,0,0,1-5.681-2.467c-6.832-5.2-15.737-3.667-24.692-1.976v36.218H202.28C202.326,209.713,202.367,209.7,202.413,209.692Z" style="fill:#f4a28c"/><path d="M215.592,263.433a24.3,24.3,0,0,1-24.271-24.271V69.551a7.5,7.5,0,0,1,15,0V239.162a9.271,9.271,0,1,0,18.541,0v-4.909a7.5,7.5,0,0,1,15,0v4.909A24.3,24.3,0,0,1,215.592,263.433Z" style="fill:#9696aa"/><path d="M194.91,202.109h0c0-4.187-3.054-7.582-6.822-7.582H173.6c-3.767,0-6.822,3.4-6.822,7.582h0c0,4.188,3.055,7.583,6.822,7.583h14.492C191.856,209.692,194.91,206.3,194.91,202.109Z" style="fill:#ffd6bb"/><path d="M196.91,186.944h0c0-4.188-3.054-7.583-6.822-7.583H174.6c-3.767,0-6.822,3.4-6.822,7.583h0c0,4.188,3.055,7.583,6.822,7.583h15.492C193.856,194.527,196.91,191.132,196.91,186.944Z" style="fill:#ffd6bb"/><path d="M199.91,171.779h0c0-4.188-3.054-7.583-6.822-7.583H174.6c-3.767,0-6.822,3.4-6.822,7.583h0c0,4.188,3.055,7.582,6.822,7.582h18.492C196.856,179.361,199.91,175.967,199.91,171.779Z" style="fill:#ffd6bb"/><path d="M198.821,10S126.8,13.187,82.731,70.636a2.223,2.223,0,0,0,1.64,3.576c9.372.492,32.512,3.154,50.494,17.161,0,0,21.157-14.693,63.956-14.693s63.955,14.693,63.955,14.693c17.983-14.007,41.123-16.669,50.5-17.161a2.223,2.223,0,0,0,1.64-3.576C270.843,13.187,198.821,10,198.821,10Z" style="fill:#ffdc6c"/><path d="M188.9,76.961c3.172-.176,6.468-.281,9.921-.281,42.8,0,63.955,14.693,63.955,14.693,17.983-14.007,41.123-16.669,50.5-17.161a2.223,2.223,0,0,0,1.64-3.576c-25.622-33.4-60.691-48.458-85.562-55.212C230.252,28.235,228.122,59.856,188.9,76.961Z" style="fill:#fca742"/><path d="M198.821,10c-44.988,24.165-63.956,81.373-63.956,81.373s21.157-12.645,63.956-12.645,63.955,12.645,63.955,12.645S243.808,34.165,198.821,10Z" style="fill:#fff"/><path d="M182.924,79.343c4.922-.387,10.213-.615,15.9-.615,42.8,0,63.955,12.645,63.955,12.645s-10.608-31.988-34.769-58.229C224.535,48.651,213.691,68.145,182.924,79.343Z" style="fill:#e6e6e6"/><rect x="244.396" y="164.583" width="73.5" height="46.411" style="fill:#728dc1"/><path d="M226.868,177.069a33.212,33.212,0,0,0-2.559-10.994,14,14,0,0,0-12.834-8.116h-9.363a9.99,9.99,0,0,0-9.99,9.99v9.421a5.606,5.606,0,0,0,5.606,5.606h0a9.729,9.729,0,0,0,9.729-9.729h0S212.8,180.023,226.868,177.069Z" style="fill:#ffd6bb"/><path d="M80.239,78.107c.3,0,30.511-.448,52.168,16.422.026.02.054.034.08.053s.026.016.038.025a3.929,3.929,0,0,0,.583.347c.039.02.078.037.117.055a3.974,3.974,0,0,0,.583.209c.037.01.072.023.109.032a4.074,4.074,0,0,0,.719.112h.018a4.048,4.048,0,0,0,.669-.026c.075-.008.149-.022.223-.035a4.129,4.129,0,0,0,.486-.115c.073-.023.147-.043.22-.07a4.007,4.007,0,0,0,.656-.3c.179-.105,16.08-9.278,47.5-11.57.955-.069,1.932-.129,2.915-.186V160.2H174.6c-5.967,0-10.822,5.2-10.822,11.583a12.006,12.006,0,0,0,2.661,7.583,12.136,12.136,0,0,0-.468,14.542,11.962,11.962,0,0,0-3.193,8.205c0,6.387,4.855,11.583,10.822,11.583h13.725v25.47a28.271,28.271,0,1,0,56.541,0v-4.909a11.5,11.5,0,0,0-23,0v4.909a5.271,5.271,0,1,1-10.541,0v-25.47H215.5a22.244,22.244,0,0,0,14.862-5.683,14.251,14.251,0,0,1,9.524-3.642h.506v6.626a4,4,0,0,0,4,4h73.5a4,4,0,0,0,0-8H248.4v-38.41h69.5a4,4,0,0,0,0-8H244.4a4,4,0,0,0-4,4v4.891H229.511a31.63,31.63,0,0,0-1.55-4.381,17.981,17.981,0,0,0-16.486-10.483h-1.154V91.373a4,4,0,0,0-8,0V154.61h-.209a13.9,13.9,0,0,0-6.791,1.768V82.76c1.151-.02,2.315-.032,3.5-.032,6.4,0,12.309.292,17.721.785,29.227,2.664,44.017,11.2,44.182,11.294a4,4,0,0,0,2.052.566,3.91,3.91,0,0,0,.657-.055c.078-.012.153-.04.23-.057a4.124,4.124,0,0,0,.411-.1c.088-.03.171-.075.257-.112.119-.05.241-.1.356-.158.084-.046.162-.107.243-.159.1-.065.207-.123.3-.2C286.892,77.659,317.1,78.1,317.4,78.107a4,4,0,0,0,3.338-6.337c-23.221-32.251-55.06-48.412-77.68-56.291C218.589,6.956,199.786,6.038,199,6q-.177-.008-.354,0c-.788.034-19.591.952-44.059,9.475C131.964,23.358,100.126,39.519,76.9,71.77a4,4,0,0,0,3.335,6.337ZM174.6,168.2h13.547c0,.135-.021.267-.021.4v9.422a9.578,9.578,0,0,0,3.36,7.282,5.4,5.4,0,0,1-.377,3.835,3.875,3.875,0,0,1-2.316,1.389H174.6c-1.529,0-2.822-1.641-2.822-3.583s1.293-3.582,2.822-3.582h4.154a4,4,0,0,0,0-8H174.6c-1.529,0-2.822-1.641-2.822-3.583S173.067,168.2,174.6,168.2Zm-3.822,33.913c0-1.942,1.293-3.582,2.822-3.582h14.492c1.53,0,2.822,1.64,2.822,3.582s-1.292,3.583-2.822,3.583H173.6C172.067,205.692,170.774,204.052,170.774,202.109Zm44.818,50.324a13.286,13.286,0,0,0,13.27-13.271v-4.909a3.5,3.5,0,0,1,7,0v4.909a20.271,20.271,0,1,1-40.541,0V210.7a11.913,11.913,0,0,0,3.589-8.592,12.038,12.038,0,0,0-2.3-7.113,10.542,10.542,0,0,0,1-1.2,11.359,11.359,0,0,0,2.028-6.3,13.664,13.664,0,0,0,2.681-.659v52.327A13.286,13.286,0,0,0,215.592,252.433ZM196.122,168.6a6,6,0,0,1,5.99-5.989h9.363a9.973,9.973,0,0,1,9.182,5.748,26.059,26.059,0,0,1,1.758,5.848c0,.011.007.02.009.031a3.952,3.952,0,0,0,.148.508c.029.085.047.176.081.258a3.779,3.779,0,0,0,.22.418c.05.09.091.187.148.273a4.082,4.082,0,0,0,.282.348c.069.081.128.171.2.246a4.07,4.07,0,0,0,.409.342c.061.047.114.1.176.146a3.95,3.95,0,0,0,.486.268c.064.032.122.074.188.1a4.018,4.018,0,0,0,.427.139c.107.033.21.076.321.1s.23.027.345.041a4.023,4.023,0,0,0,.452.046c.013,0,.024,0,.037,0H240.4v18.893h-.506a22.242,22.242,0,0,0-14.862,5.683,14.253,14.253,0,0,1-9.524,3.642h-5.183V180.584a22.93,22.93,0,0,0,6.171,1.655,4,4,0,0,0,1.017-7.935c-4.886-.627-6.888-2.861-6.91-2.882a3.879,3.879,0,0,0-4.417-1.414,4.047,4.047,0,0,0-2.725,3.89,5.735,5.735,0,0,1-5.729,5.729,1.607,1.607,0,0,1-1.606-1.606ZM181.734,16.442c-20.211,15.811-33.929,37.46-42.365,54.349a4,4,0,0,0,7.158,3.575c9.761-19.543,26.886-45.742,53.207-60.3,8.9.7,70.266,7.235,109.928,56.366-10.3.867-28.831,3.958-44.952,14.649-4.529-11.47-17.482-40.126-41.195-62.127a4,4,0,0,0-5.442,5.864c19.734,18.309,31.846,42.136,37.365,54.867-25.084-11.911-87.664-12.74-120.2,2.968C118.614,74.674,98.776,71.345,87.981,70.436,117.338,34.083,158.676,21.045,181.734,16.442Z" style="fill:#494456"/><circle cx="262.336" cy="179.36" r="4" style="fill:#494456"/><circle cx="276.806" cy="179.36" r="4" style="fill:#494456"/><circle cx="56.088" cy="149.35" r="4" style="fill:#494456"/><circle cx="74.558" cy="149.35" r="4" style="fill:#494456"/></svg>